<?xml version="1.0" encoding="UTF-8" standalone="no"?>
<!--?xml version="1.0" encoding="utf-8"?-->

<!-- Generator: Adobe Illustrator 18.1.1, SVG Export Plug-In . SVG Version: 6.00 Build 0)  -->

<svg
   version="1.1"
   id="_x32_"
   x="0px"
   y="0px"
   viewBox="0 0 512 512"
   style="width: 256px; height: 256px; opacity: 1;"
   xml:space="preserve"
   sodipodi:docname="肉球のアイコン2~.svg"
   inkscape:version="1.4.2 (ebf0e94, 2025-05-08)"
   xmlns:inkscape="http://www.inkscape.org/namespaces/inkscape"
   xmlns:sodipodi="http://sodipodi.sourceforge.net/DTD/sodipodi-0.dtd"
   xmlns="http://www.w3.org/2000/svg"
   xmlns:svg="http://www.w3.org/2000/svg"><defs
   id="defs6" /><sodipodi:namedview
   id="namedview6"
   pagecolor="#ffffff"
   bordercolor="#999999"
   borderopacity="1"
   inkscape:showpageshadow="0"
   inkscape:pageopacity="0"
   inkscape:pagecheckerboard="0"
   inkscape:deskcolor="#d1d1d1"
   showgrid="false"
   inkscape:zoom="1.1875"
   inkscape:cx="256"
   inkscape:cy="255.57895"
   inkscape:current-layer="_x32_" />
<style
   type="text/css"
   id="style1">
	.st0{fill:#4B4B4B;}
</style>
<g
   id="g6">
	<path
   class="st0"
   d="M120.113,139.014c4.529,13.248,13.07,24.156,23.738,31.637c10.672,7.491,23.51,11.665,36.848,11.673   c6.896,0,13.906-1.126,20.726-3.458l0.023-0.008c13.24-4.528,24.144-13.066,31.626-23.738c7.49-10.664,11.668-23.502,11.672-36.844   c0-6.891-1.126-13.917-3.469-20.753c-4.525-13.232-13.063-24.14-23.726-31.63c-10.668-7.49-23.502-11.672-36.848-11.672   c-6.888,0-13.913,1.119-20.765,3.474c-13.236,4.528-24.14,13.066-31.614,23.731c-7.494,10.664-11.672,23.501-11.676,36.843   c0,6.876,1.122,13.878,3.45,20.698L120.113,139.014z M154.716,99.964c3.749-5.308,9.042-9.475,15.689-11.751l-1.39,0.473   l1.41-0.489c3.43-1.174,6.868-1.717,10.278-1.717c6.565-0.008,12.984,2.072,18.296,5.813c5.312,3.749,9.475,9.042,11.759,15.682   v0.007c1.182,3.442,1.728,6.892,1.728,10.294c0.004,6.569-2.075,12.988-5.808,18.304c-3.749,5.317-9.042,9.475-15.689,11.759h0.023   c-3.458,1.174-6.915,1.717-10.314,1.717c-6.572,0.008-12.991-2.071-18.304-5.804c-5.3-3.733-9.456-9.01-11.743-15.641l-0.016-0.04   c-1.182-3.458-1.729-6.9-1.729-10.302C148.904,111.7,150.983,105.281,154.716,99.964z"
   style="fill: rgb(75, 75, 75);"
   id="path1" />
	<path
   class="st0"
   d="M120.109,139.014c-0.003-0.016-0.003-0.032-0.012-0.048l-0.422-1.228L120.109,139.014z"
   style="fill: rgb(75, 75, 75);"
   id="path2" />
	<path
   class="st0"
   d="M312.969,175.244l-2.182-0.748l2.198,0.756c6.833,2.339,13.846,3.458,20.73,3.458   c13.346-0.008,26.18-4.182,36.852-11.672c10.668-7.482,19.21-18.391,23.738-31.63c2.343-6.844,3.466-13.862,3.466-20.753   c-0.004-13.342-4.182-26.18-11.676-36.851c-7.478-10.664-18.39-19.21-31.634-23.731l0.007,0.007   c-6.828-2.347-13.849-3.481-20.753-3.481c-13.342,0.008-26.18,4.19-36.848,11.68c-10.664,7.482-19.205,18.39-23.726,31.638   c-2.344,6.829-3.47,13.854-3.47,20.746c0.004,13.342,4.182,26.18,11.672,36.843C288.825,162.169,299.729,170.715,312.969,175.244z    M303.659,104.367c2.284-6.655,6.446-11.948,11.759-15.697c5.312-3.734,11.727-5.813,18.296-5.813c3.39,0,6.84,0.552,10.294,1.732   l0.008,0.008c6.648,2.276,11.936,6.435,15.686,11.751c3.733,5.316,5.812,11.735,5.808,18.304c0,3.403-0.548,6.852-1.725,10.302   c-2.284,6.64-6.45,11.932-11.763,15.682c-5.312,3.734-11.736,5.812-18.308,5.812c-3.403,0-6.856-0.552-10.302-1.725l2.182,0.748   l-2.166-0.74c-6.647-2.292-11.94-6.458-15.689-11.767c-3.733-5.317-5.812-11.736-5.808-18.304   C301.931,111.259,302.478,107.809,303.659,104.367z"
   style="fill: rgb(75, 75, 75);"
   id="path3" />
	<path
   class="st0"
   d="M500.324,202.392c-7.478-10.664-18.391-19.209-31.634-23.73h0.008c-6.829-2.339-13.85-3.474-20.753-3.466   c-13.342,0-26.18,4.174-36.848,11.672c-10.664,7.482-19.205,18.398-23.726,31.638c-2.343,6.829-3.469,13.854-3.469,20.754   c0.003,13.334,4.182,26.172,11.672,36.836c7.483,10.672,18.387,19.209,31.626,23.738l0.016,0.008   c6.832,2.332,13.846,3.458,20.73,3.458c13.346-0.008,26.18-4.182,36.852-11.673c10.668-7.482,19.209-18.39,23.738-31.638   c2.343-6.836,3.466-13.854,3.466-20.746C511.996,225.902,507.818,213.064,500.324,202.392z M478.015,249.546   c-2.284,6.639-6.45,11.932-11.763,15.681c-5.312,3.733-11.736,5.812-18.308,5.804c-3.403,0-6.856-0.543-10.302-1.717h0.016   c-6.647-2.284-11.94-6.45-15.689-11.766c-3.733-5.308-5.812-11.727-5.808-18.288c0-3.403,0.547-6.852,1.728-10.302   c2.284-6.655,6.446-11.948,11.759-15.697c5.312-3.732,11.727-5.812,18.296-5.804c3.39,0,6.84,0.544,10.293,1.725l0.008,0.008   c6.647,2.276,11.936,6.442,15.685,11.751c3.733,5.308,5.812,11.736,5.809,18.304C479.74,242.646,479.192,246.096,478.015,249.546z"
   style="fill: rgb(75, 75, 75);"
   id="path4" />
	<path
   class="st0"
   d="M124.634,259.989c2.343-6.836,3.466-13.854,3.466-20.746c-0.004-13.342-4.183-26.18-11.677-36.852   c-7.478-10.664-18.39-19.209-31.634-23.73l-0.024-0.008c-6.816-2.331-13.83-3.466-20.722-3.458   c-13.342,0-26.18,4.174-36.848,11.672C16.532,194.35,7.99,205.266,3.469,218.506v-0.007C1.126,225.335,0,232.36,0,239.26   c0.004,13.334,4.182,26.172,11.672,36.836c7.483,10.672,18.387,19.209,31.626,23.738l0.016,0.008   c6.832,2.332,13.846,3.458,20.73,3.458c13.346-0.008,26.18-4.182,36.852-11.673C111.564,284.145,120.106,273.237,124.634,259.989z    M94.114,249.546c-2.284,6.639-6.451,11.932-11.763,15.681c-5.312,3.733-11.735,5.812-18.308,5.804   c-3.402,0-6.856-0.543-10.302-1.717h0.016c-6.647-2.284-11.94-6.45-15.689-11.766c-3.734-5.308-5.813-11.727-5.808-18.288   c0-3.411,0.547-6.852,1.728-10.302l0.012-0.032c2.288-6.639,6.442-11.924,11.746-15.666c5.313-3.732,11.728-5.812,18.296-5.804   c3.391,0,6.84,0.544,10.294,1.725l3.052,1.048l-3.044-1.04c6.647,2.276,11.936,6.442,15.686,11.751   c3.732,5.308,5.812,11.736,5.808,18.304C95.839,242.646,95.292,246.096,94.114,249.546z"
   style="fill: rgb(75, 75, 75);"
   id="path5" />
	<path
   class="st0"
   d="M338.475,234.219c-12.318-9.83-25.66-17.973-39.687-23.754c-14.02-5.766-28.774-9.168-43.739-9.168   c-19.966,0.016-39.502,6.017-57.526,15.712c-27.039,14.594-51.025,37.529-68.734,64.182c-17.626,26.66-29.134,57.18-29.204,87.755   c0,11.105,1.568,22.194,5.04,32.898c3.666,11.318,8.585,20.981,14.674,29c9.097,12.066,20.891,20.115,33.122,24.636   c12.259,4.56,24.829,5.915,36.864,5.922c13.24-0.007,25.975-1.654,37.364-3.174c11.349-1.544,21.458-2.915,28.401-2.882   c6.938-0.032,17.051,1.339,28.397,2.882c11.393,1.52,24.128,3.166,37.368,3.174c15.988-0.015,33.17-2.402,48.867-11.633   c7.801-4.599,15.047-10.908,21.119-18.925c6.088-8.018,11.007-17.682,14.674-28.992c3.473-10.711,5.04-21.8,5.04-32.905   c-0.016-20.376-5.21-40.751-13.814-59.952C383.734,280.207,363.084,253.893,338.475,234.219z M374.788,391.897   c-2.733,8.427-6.08,14.689-9.688,19.446c-5.446,7.096-11.42,11.137-18.718,13.917c-7.274,2.732-15.996,3.891-25.569,3.883   c-10.51,0.008-21.899-1.378-33.076-2.882c-11.215-1.489-22.112-3.142-32.689-3.174c-10.577,0.031-21.474,1.685-32.689,3.165   c-11.176,1.512-22.565,2.899-33.076,2.891c-12.818,0.016-23.896-2.056-32.457-7.152c-4.328-2.575-8.207-5.898-11.83-10.648   c-3.607-4.757-6.954-11.018-9.688-19.446c-2.332-7.199-3.466-14.87-3.466-22.951c-0.015-14.791,3.879-30.929,10.987-46.737   c10.605-23.714,28.436-46.484,48.906-62.772c10.223-8.159,21.072-14.712,31.846-19.138c10.782-4.442,21.438-6.75,31.465-6.742   c13.354-0.016,27.893,4.127,42.239,11.861c21.517,11.53,42.258,31.094,57.136,53.596c14.96,22.478,23.899,47.76,23.829,69.931   C378.254,377.027,377.119,384.698,374.788,391.897z"
   style="fill: rgb(75, 75, 75);"
   id="path6" />
</g>
<path
   style="fill:#c8ab37;stroke-width:1.59138;stroke-linecap:square"
   d="m 53.726179,268.7477 c -8.508639,-2.94 -14.400864,-8.44224 -18.30818,-17.09642 -6.845906,-15.16277 -0.147577,-32.94036 15.374782,-40.80519 4.324827,-2.19129 5.597873,-2.42502 13.207219,-2.42487 7.52276,1.6e-4 8.934586,0.2523 13.235176,2.36371 6.64817,3.26398 12.026549,8.75989 15.219533,15.55211 5.93831,12.63218 2.19968,28.63674 -8.707438,37.27533 -8.154475,6.45847 -20.219119,8.52221 -30.021092,5.13533 z"
   id="path7" /><path
   style="fill:#c8ab37;stroke-width:1.59138;stroke-linecap:square"
   d="m 173.37558,148.75377 c -9.00561,-2.28565 -16.9895,-8.80062 -21.13929,-17.24999 -2.08633,-4.24799 -2.34121,-5.6837 -2.34121,-13.18799 0,-7.52295 0.25207,-8.93448 2.36353,-13.23518 3.25817,-6.636329 8.75966,-12.024177 15.55211,-15.230861 4.97639,-2.349325 6.53608,-2.674569 12.86453,-2.682654 6.64323,-0.0085 7.70065,0.237458 13.63873,3.172214 7.27507,3.595538 11.43028,7.773216 14.84359,14.923851 1.93024,4.04371 2.21085,5.70043 2.21085,13.05263 0,7.60013 -0.23964,8.90914 -2.45828,13.42781 -6.46212,13.16133 -21.78983,20.49861 -35.53456,17.01017 z"
   id="path8" /><path
   style="fill:#c8ab37;stroke-width:1.59138;stroke-linecap:square"
   d="m 323.87005,144.46262 c -8.957,-2.90713 -17.74618,-12.00463 -20.25512,-20.96568 -1.77612,-6.34368 -0.81975,-16.82117 2.07002,-22.67804 2.94483,-5.96846 8.99274,-11.771999 15.39457,-14.772537 4.16629,-1.952736 5.89335,-2.256414 12.81522,-2.25336 7.1319,0.0031 8.54628,0.270938 13.03426,2.467852 6.43029,3.147687 12.10723,8.834604 15.20449,15.231195 2.15371,4.44796 2.44113,5.96597 2.46785,13.03427 0.0262,6.9406 -0.26644,8.63286 -2.2101,12.77907 -3.00463,6.40943 -8.01312,11.65288 -14.38948,15.06452 -4.68021,2.50413 -6.10662,2.8436 -12.84387,3.05673 -4.89883,0.15497 -8.89051,-0.18593 -11.28784,-0.96402 z"
   id="path9" /><path
   style="fill:#c8ab37;stroke-width:1.59138;stroke-linecap:square"
   d="m 436.32172,268.29321 c -7.51282,-3.1634 -12.20399,-7.591 -16.11119,-15.20599 -3.1658,-6.17003 -3.36787,-7.00171 -3.35922,-13.82608 0.008,-6.39541 0.32795,-7.93632 2.68265,-12.9241 3.20769,-6.79459 8.59709,-12.29647 15.23086,-15.54875 4.24434,-2.08083 5.76099,-2.3606 12.81413,-2.36371 7.22063,-0.003 8.53325,0.25159 13.47368,2.61513 23.98123,11.47283 24.23032,44.71681 0.42234,56.36497 -4.13279,2.02198 -6.23095,2.47174 -12.58571,2.69786 -6.59126,0.23452 -8.29664,-0.011 -12.56754,-1.80933 z"
   id="path10" /><path
   style="fill:#ffffff;stroke-width:1.59138;stroke-linecap:square"
   d="m 173.47368,427.44286 c -16.33162,-3.18202 -26.34314,-10.9394 -33.71268,-26.12213 -2.03868,-4.20008 -4.51892,-11.04705 -5.51165,-15.21547 -2.51937,-10.57876 -1.95613,-29.74389 1.22823,-41.7927 7.13484,-26.99639 23.20563,-53.28581 45.78553,-74.8983 11.70015,-11.19886 22.41518,-18.86323 35.15794,-25.14815 16.44179,-8.10933 27.86176,-10.7566 42.76228,-9.91273 50.09803,2.83721 107.5841,61.30011 117.26814,119.26083 1.86689,11.17368 1.32458,26.18097 -1.28061,35.43842 -5.73391,20.37522 -17.03459,32.65837 -34.60662,37.61529 -8.89035,2.50789 -32.89787,2.06514 -54.24845,-1.00048 C 263.3175,422.36525 247.44803,422.3481 224,425.6001 c -20.2711,2.8114 -41.56827,3.58814 -50.52632,1.84276 z"
   id="path11" /><path
   style="fill:#ffffff;stroke-width:1.59138;stroke-linecap:square"
   d="m 57.72236,269.3959 c -9.400376,-1.84271 -17.051018,-8.01029 -21.713513,-17.50441 -2.043993,-4.16213 -2.32421,-5.6994 -2.321107,-12.7336 0.0031,-7.05979 0.281905,-8.56788 2.372161,-12.83199 3.122657,-6.3702 9.018309,-12.13755 15.515707,-15.17805 4.893205,-2.28981 5.843994,-2.4432 13.476097,-2.17416 6.53272,0.23029 9.037738,0.69631 12.253189,2.27953 5.626547,2.77039 11.599631,8.87501 14.532024,14.85204 2.215232,4.51526 2.478871,5.90347 2.478871,13.05263 0,6.88406 -0.309548,8.66018 -2.219086,12.73265 -4.426067,9.43946 -11.435789,15.04451 -21.474753,17.17144 -6.429915,1.36229 -7.510745,1.39027 -12.89959,0.33392 z"
   id="path12" /><path
   style="fill:#ffffff;stroke-width:1.59138;stroke-linecap:square"
   d="m 170.88268,147.56944 c -8.89818,-3.17962 -17.19186,-11.61462 -19.71811,-20.05408 -1.65944,-5.54373 -0.81636,-17.65396 1.56669,-22.50446 2.76253,-5.6229 8.86752,-11.5981 14.84769,-14.532028 C 172.1001,88.26075 173.47772,88 180.67556,88 c 7.48507,0 8.43702,0.199502 13.7009,2.871306 6.14014,3.116569 11.12078,7.915209 14.19529,13.676554 1.71905,3.22132 1.95457,4.82959 1.95457,13.34688 0,8.49588 -0.24575,10.18337 -2.00272,13.75209 -2.72002,5.52483 -9.109,11.70671 -15.00996,14.52339 -6.42357,3.06613 -16.26353,3.67451 -22.63096,1.39922 z"
   id="path13" /><path
   style="fill:#ffffff;stroke-width:1.59138;stroke-linecap:square"
   d="m 322.73513,143.64063 c -3.54197,-1.26401 -7.26744,-3.92043 -11.43897,-8.15649 -6.78341,-6.88834 -9.1755,-14.64573 -7.72719,-25.05873 1.07313,-7.71553 4.00983,-13.322793 9.61858,-18.365549 7.28177,-6.546935 9.6817,-7.425582 20.28613,-7.427023 8.12546,-0.0011 9.7803,0.252192 13.47369,2.062335 5.39068,2.641991 12.13652,9.387832 14.77851,14.778507 1.81014,3.69339 2.06344,5.34823 2.06233,13.47369 -10e-4,8.09727 -0.24941,9.72867 -1.97287,12.96171 -3.0201,5.66544 -9.0522,11.578 -14.68236,14.39142 -4.62194,2.30961 -5.82336,2.53823 -13.16222,2.50464 -4.51384,-0.0207 -9.46967,-0.5343 -11.23563,-1.16451 z"
   id="path14" /><path
   style="fill:#ffffff;stroke-width:1.59138;stroke-linecap:square"
   d="m 434.36694,266.94065 c -6.22822,-3.0663 -10.75123,-7.92767 -14.54415,-15.6322 -2.62049,-5.32295 -2.73628,-5.96158 -2.40999,-13.29213 0.29112,-6.54051 0.71795,-8.39824 2.8334,-12.33211 3.11002,-5.78336 9.16199,-11.82783 14.44891,-14.43099 3.50634,-1.72645 5.26877,-1.99006 13.30489,-1.99006 8.68417,0 9.54368,0.15539 13.75114,2.48605 2.46838,1.36732 6.5356,4.69773 9.03825,7.40089 13.75733,14.85956 8.96111,38.82478 -9.60004,47.9684 -3.20493,1.57882 -5.55053,1.97583 -12.7683,2.16114 -8.38065,0.21516 -9.11411,0.0931 -14.05411,-2.33899 z"
   id="path15" /><path
   style="fill:#ffffff;stroke-width:1.59138;stroke-linecap:square"
   d="m 173.47368,427.42643 c -16.54958,-3.27063 -26.2854,-10.80073 -33.6857,-26.05392 -5.18561,-10.68836 -7.14316,-19.50619 -7.1505,-32.20957 -0.007,-12.41663 1.61875,-22.30958 5.58881,-34.00505 16.39813,-48.30757 61.70163,-91.96743 103.60411,-99.84529 27.49252,-5.16872 59.07603,7.18057 87.32903,34.14605 31.0286,29.61458 49.78347,69.64479 48.28696,103.06322 -0.53346,11.91272 -2.4526,19.59256 -7.42017,29.69345 -7.04791,14.331 -18.02568,22.48835 -34.0357,25.29121 -10.1425,1.77563 -28.49903,1.079 -50.09578,-1.90114 -22.69695,-3.13196 -38.94581,-3.12473 -61.89474,0.0275 -20.3616,2.79686 -41.62929,3.55179 -50.52632,1.7935 z"
   id="path16" /></svg>
